<svg role="img" viewBox="0 0 24 24" xmlns="http://www.w3.org/2000/svg" fill="#fff"><title>JavaScript Logo</title><g id="Livello_2" data-name="Livello 2"><g id="Livello_1-2" data-name="Livello 1"><path d="M12,24H1.62A1.52,1.52,0,0,1,0,22.37V1.67A1.54,1.54,0,0,1,1.25,0a2.19,2.19,0,0,1,.36,0H22.39A1.54,1.54,0,0,1,24,1.64V22a5.46,5.46,0,0,1,0,.7A1.53,1.53,0,0,1,22.43,24Zm0-1.14H22.26c.51,0,.6-.1.59-.61V1.74c0-.5-.09-.6-.6-.6H1.69c-.43,0-.54.12-.55.55V22.22c0,.55.08.64.62.64Z"/><path d="M21.06,12.62l-1.67,1.07c-.07-.09-.12-.17-.18-.26a1.39,1.39,0,0,0-1.43-.65.94.94,0,0,0-.58,1.61,5.16,5.16,0,0,0,.9.55c.64.32,1.3.58,1.93.92a3,3,0,0,1,1.56,1.84A3,3,0,0,1,19,21.65a4.67,4.67,0,0,1-3.15-.51,4,4,0,0,1-1.53-1.71L16,18.3a9,9,0,0,0,.62.81,1.87,1.87,0,0,0,2,.59,1,1,0,0,0,.78-.78A1,1,0,0,0,19,17.8c-.4-.25-.84-.43-1.26-.65A16.88,16.88,0,0,1,16,16.21a3,3,0,0,1-1.07-3.3,2.81,2.81,0,0,1,2.57-2A6,6,0,0,1,19.1,11,2.83,2.83,0,0,1,21.06,12.62Z"/><path d="M6.29,19.43l1.77-1.07c.16.19.29.38.45.55a1.65,1.65,0,0,0,1.5.5.9.9,0,0,0,.81-.92c0-.31,0-.63,0-.94,0-2.06,0-4.11,0-6.17v-.5h2.29v.43c0,2.3,0,4.61,0,6.91A5.86,5.86,0,0,1,13,19.41a2.71,2.71,0,0,1-2.23,2.21A4,4,0,0,1,6.29,19.43Z"/></g></g></svg>